G04 PROTEUS GERBER X2 FILE*
%TF.GenerationSoftware,Labcenter,Proteus,8.10-SP3-Build29560*%
%TF.CreationDate,2021-11-08T14:01:37+00:00*%
%TF.FileFunction,Legend,Top*%
%TF.FilePolarity,Positive*%
%TF.Part,Single*%
%TF.SameCoordinates,{7c1fb083-864a-452a-ad60-76d9de97a9ee}*%
%FSLAX45Y45*%
%MOMM*%
G01*
%TA.AperFunction,Profile*%
%ADD15C,0.203200*%
%TA.AperFunction,Material*%
%ADD16C,0.203200*%
%TD.AperFunction*%
D15*
X-3250000Y+1750000D02*
X-750000Y+1750000D01*
X-750000Y+5000000D01*
X-3250000Y+5000000D01*
X-3250000Y+1750000D01*
D16*
X-2087000Y+3893000D02*
X-2214000Y+3893000D01*
X-2214000Y+4909000D01*
X-1706000Y+4909000D01*
X-1706000Y+3893000D01*
X-1833000Y+3893000D01*
X-1960000Y+4020000D02*
X-1985876Y+4017564D01*
X-2009848Y+4010515D01*
X-2031438Y+3999238D01*
X-2050170Y+3984122D01*
X-2065569Y+3965554D01*
X-2077158Y+3943919D01*
X-2084460Y+3919606D01*
X-2087000Y+3893000D01*
X-1960000Y+4020000D02*
X-1933394Y+4017564D01*
X-1909081Y+4010515D01*
X-1887446Y+3999238D01*
X-1868878Y+3984122D01*
X-1853762Y+3965554D01*
X-1842485Y+3943919D01*
X-1835436Y+3919606D01*
X-1833000Y+3893000D01*
X-2087000Y+3852360D02*
X-2087000Y+3776160D01*
X-2071125Y+3760920D01*
X-2007625Y+3760920D01*
X-1991750Y+3776160D01*
X-1991750Y+3852360D01*
X-1928250Y+3821880D02*
X-1896500Y+3852360D01*
X-1896500Y+3760920D01*
X-1623000Y+2250000D02*
X-1628080Y+2224124D01*
X-1642685Y+2200152D01*
X-1665862Y+2178562D01*
X-1696660Y+2159830D01*
X-1734125Y+2144431D01*
X-1777305Y+2132842D01*
X-1825248Y+2125540D01*
X-1877000Y+2123000D01*
X-2131000Y+2250000D02*
X-2125920Y+2224124D01*
X-2111315Y+2200152D01*
X-2088138Y+2178562D01*
X-2057340Y+2159830D01*
X-2019875Y+2144431D01*
X-1976695Y+2132842D01*
X-1928752Y+2125540D01*
X-1877000Y+2123000D01*
X-1623000Y+2250000D02*
X-1628080Y+2275876D01*
X-1642685Y+2299848D01*
X-1665862Y+2321438D01*
X-1696660Y+2340170D01*
X-1734125Y+2355569D01*
X-1777305Y+2367158D01*
X-1825248Y+2374460D01*
X-1877000Y+2377000D01*
X-2131000Y+2250000D02*
X-2125920Y+2275876D01*
X-2111315Y+2299848D01*
X-2088138Y+2321438D01*
X-2057340Y+2340170D01*
X-2019875Y+2355569D01*
X-1976695Y+2367158D01*
X-1928752Y+2374460D01*
X-1877000Y+2377000D01*
X-1908750Y+2006160D02*
X-1924625Y+1990920D01*
X-1972250Y+1990920D01*
X-2004000Y+2021400D01*
X-2004000Y+2051880D01*
X-1972250Y+2082360D01*
X-1924625Y+2082360D01*
X-1908750Y+2067120D01*
X-1861125Y+2067120D02*
X-1845250Y+2082360D01*
X-1797625Y+2082360D01*
X-1781750Y+2067120D01*
X-1781750Y+2051880D01*
X-1797625Y+2036640D01*
X-1845250Y+2036640D01*
X-1861125Y+2021400D01*
X-1861125Y+1990920D01*
X-1781750Y+1990920D01*
X-1528000Y+2905000D02*
X-1533080Y+2879124D01*
X-1547685Y+2855152D01*
X-1570862Y+2833562D01*
X-1601660Y+2814830D01*
X-1639125Y+2799431D01*
X-1682305Y+2787842D01*
X-1730248Y+2780540D01*
X-1782000Y+2778000D01*
X-2036000Y+2905000D02*
X-2030920Y+2879124D01*
X-2016315Y+2855152D01*
X-1993138Y+2833562D01*
X-1962340Y+2814830D01*
X-1924875Y+2799431D01*
X-1881695Y+2787842D01*
X-1833752Y+2780540D01*
X-1782000Y+2778000D01*
X-1528000Y+2905000D02*
X-1533080Y+2930876D01*
X-1547685Y+2954848D01*
X-1570862Y+2976438D01*
X-1601660Y+2995170D01*
X-1639125Y+3010569D01*
X-1682305Y+3022158D01*
X-1730248Y+3029460D01*
X-1782000Y+3032000D01*
X-2036000Y+2905000D02*
X-2030920Y+2930876D01*
X-2016315Y+2954848D01*
X-1993138Y+2976438D01*
X-1962340Y+2995170D01*
X-1924875Y+3010569D01*
X-1881695Y+3022158D01*
X-1833752Y+3029460D01*
X-1782000Y+3032000D01*
X-1813750Y+2661160D02*
X-1829625Y+2645920D01*
X-1877250Y+2645920D01*
X-1909000Y+2676400D01*
X-1909000Y+2706880D01*
X-1877250Y+2737360D01*
X-1829625Y+2737360D01*
X-1813750Y+2722120D01*
X-1766125Y+2722120D02*
X-1750250Y+2737360D01*
X-1702625Y+2737360D01*
X-1686750Y+2722120D01*
X-1686750Y+2706880D01*
X-1702625Y+2691640D01*
X-1686750Y+2676400D01*
X-1686750Y+2661160D01*
X-1702625Y+2645920D01*
X-1750250Y+2645920D01*
X-1766125Y+2661160D01*
X-1734375Y+2691640D02*
X-1702625Y+2691640D01*
X-2658620Y+2673920D02*
X-2391920Y+2673920D01*
X-2391920Y+3192080D01*
X-2658620Y+3192080D01*
X-2658620Y+2673920D01*
X-2656080Y+2755200D02*
X-2394460Y+2755200D01*
X-2524000Y+2602800D02*
X-2524000Y+2673920D01*
X-2524000Y+3192080D02*
X-2524000Y+3263200D01*
X-2699260Y+2806000D02*
X-2790700Y+2806000D01*
X-2790700Y+2869500D01*
X-2760220Y+2901250D01*
X-2729740Y+2901250D01*
X-2699260Y+2869500D01*
X-2699260Y+2806000D01*
X-2760220Y+2964750D02*
X-2790700Y+2996500D01*
X-2699260Y+2996500D01*
X-3041080Y+3923920D02*
X-2774380Y+3923920D01*
X-2774380Y+4442080D01*
X-3041080Y+4442080D01*
X-3041080Y+3923920D01*
X-2776920Y+4360800D02*
X-3038540Y+4360800D01*
X-2909000Y+4513200D02*
X-2909000Y+4442080D01*
X-2909000Y+3923920D02*
X-2909000Y+3852800D01*
X-2642300Y+4056000D02*
X-2733740Y+4056000D01*
X-2733740Y+4119500D01*
X-2703260Y+4151250D01*
X-2672780Y+4151250D01*
X-2642300Y+4119500D01*
X-2642300Y+4056000D01*
X-2718500Y+4198875D02*
X-2733740Y+4214750D01*
X-2733740Y+4262375D01*
X-2718500Y+4278250D01*
X-2703260Y+4278250D01*
X-2688020Y+4262375D01*
X-2688020Y+4214750D01*
X-2672780Y+4198875D01*
X-2642300Y+4198875D01*
X-2642300Y+4278250D01*
X-1394080Y+4002920D02*
X-1127380Y+4002920D01*
X-1127380Y+4521080D01*
X-1394080Y+4521080D01*
X-1394080Y+4002920D01*
X-1129920Y+4439800D02*
X-1391540Y+4439800D01*
X-1262000Y+4592200D02*
X-1262000Y+4521080D01*
X-1262000Y+4002920D02*
X-1262000Y+3931800D01*
X-995300Y+4135000D02*
X-1086740Y+4135000D01*
X-1086740Y+4198500D01*
X-1056260Y+4230250D01*
X-1025780Y+4230250D01*
X-995300Y+4198500D01*
X-995300Y+4135000D01*
X-1071500Y+4277875D02*
X-1086740Y+4293750D01*
X-1086740Y+4341375D01*
X-1071500Y+4357250D01*
X-1056260Y+4357250D01*
X-1041020Y+4341375D01*
X-1025780Y+4357250D01*
X-1010540Y+4357250D01*
X-995300Y+4341375D01*
X-995300Y+4293750D01*
X-1010540Y+4277875D01*
X-1041020Y+4309625D02*
X-1041020Y+4341375D01*
X-1127000Y+2615000D02*
X-873000Y+2615000D01*
X-873000Y+3377000D01*
X-1127000Y+3377000D01*
X-1127000Y+2615000D01*
X-1254000Y+2615000D01*
X-1254000Y+3377000D01*
X-1127000Y+3377000D01*
X-1127000Y+2615000D02*
X-1254000Y+2742000D01*
X-1127000Y+2742000D02*
X-1254000Y+2869000D01*
X-1127000Y+2869000D02*
X-1254000Y+2996000D01*
X-1127000Y+2996000D02*
X-1254000Y+3123000D01*
X-1127000Y+3123000D02*
X-1254000Y+3250000D01*
X-1127000Y+3250000D02*
X-1254000Y+3377000D01*
X-1355600Y+2869000D02*
X-1386080Y+2900750D01*
X-1386080Y+2932500D01*
X-1355600Y+2964250D01*
X-1325120Y+2964250D01*
X-1294640Y+2932500D01*
X-1294640Y+2900750D01*
X-1325120Y+2869000D01*
X-1355600Y+2869000D01*
X-1325120Y+2932500D02*
X-1294640Y+2964250D01*
X-1355600Y+3027750D02*
X-1386080Y+3059500D01*
X-1294640Y+3059500D01*
X-873000Y+2250000D02*
X-878080Y+2224124D01*
X-892685Y+2200152D01*
X-915862Y+2178562D01*
X-946660Y+2159830D01*
X-984125Y+2144431D01*
X-1027305Y+2132842D01*
X-1075248Y+2125540D01*
X-1127000Y+2123000D01*
X-1381000Y+2250000D02*
X-1375920Y+2224124D01*
X-1361315Y+2200152D01*
X-1338138Y+2178562D01*
X-1307340Y+2159830D01*
X-1269875Y+2144431D01*
X-1226695Y+2132842D01*
X-1178752Y+2125540D01*
X-1127000Y+2123000D01*
X-873000Y+2250000D02*
X-878080Y+2275876D01*
X-892685Y+2299848D01*
X-915862Y+2321438D01*
X-946660Y+2340170D01*
X-984125Y+2355569D01*
X-1027305Y+2367158D01*
X-1075248Y+2374460D01*
X-1127000Y+2377000D01*
X-1381000Y+2250000D02*
X-1375920Y+2275876D01*
X-1361315Y+2299848D01*
X-1338138Y+2321438D01*
X-1307340Y+2340170D01*
X-1269875Y+2355569D01*
X-1226695Y+2367158D01*
X-1178752Y+2374460D01*
X-1127000Y+2377000D01*
X-1158750Y+2006160D02*
X-1174625Y+1990920D01*
X-1222250Y+1990920D01*
X-1254000Y+2021400D01*
X-1254000Y+2051880D01*
X-1222250Y+2082360D01*
X-1174625Y+2082360D01*
X-1158750Y+2067120D01*
X-1095250Y+2051880D02*
X-1063500Y+2082360D01*
X-1063500Y+1990920D01*
M02*
