G04 PROTEUS GERBER X2 FILE*
%TF.GenerationSoftware,Labcenter,Proteus,8.10-SP3-Build29560*%
%TF.CreationDate,2021-11-08T14:01:37+00:00*%
%TF.FileFunction,AssemblyDrawing,Top*%
%TF.FilePolarity,Positive*%
%TF.Part,Single*%
%TF.SameCoordinates,{7c1fb083-864a-452a-ad60-76d9de97a9ee}*%
%FSLAX45Y45*%
%MOMM*%
G01*
%TA.AperFunction,Profile*%
%ADD15C,0.203200*%
%TA.AperFunction,Material*%
%ADD16C,0.203200*%
%ADD20C,0.508000*%
%ADD21C,0.302420*%
%ADD22C,0.711200*%
%ADD23C,0.111760*%
%ADD24C,0.914400*%
%ADD25C,0.186690*%
%ADD26C,0.812800*%
%ADD27C,0.194730*%
%TD.AperFunction*%
D15*
X-3250000Y+1750000D02*
X-750000Y+1750000D01*
X-750000Y+5000000D01*
X-3250000Y+5000000D01*
X-3250000Y+1750000D01*
D16*
X-2404500Y+3882840D02*
X-1515500Y+3882840D01*
X-1515500Y+4919160D01*
X-2404500Y+4919160D01*
X-2404500Y+3882840D01*
D20*
X-1579000Y+4020000D02*
X-1579000Y+4020000D01*
D21*
X-2095179Y+4128814D02*
X-1943964Y+4128814D01*
X-1913721Y+4162837D01*
X-1913721Y+4298930D01*
X-1943964Y+4332953D01*
X-2095179Y+4332953D01*
X-2034693Y+4469046D02*
X-2095179Y+4537093D01*
X-1913721Y+4537093D01*
D16*
X-2141160Y+2112840D02*
X-1612840Y+2112840D01*
X-1612840Y+2387160D01*
X-2141160Y+2387160D01*
X-2141160Y+2112840D01*
D22*
X-1750000Y+2250000D02*
X-1750000Y+2250000D01*
D23*
X-1988506Y+2227648D02*
X-2001079Y+2216472D01*
X-2038798Y+2216472D01*
X-2063944Y+2238824D01*
X-2063944Y+2261176D01*
X-2038798Y+2283528D01*
X-2001079Y+2283528D01*
X-1988506Y+2272352D01*
X-1950787Y+2272352D02*
X-1938214Y+2283528D01*
X-1900495Y+2283528D01*
X-1887922Y+2272352D01*
X-1887922Y+2261176D01*
X-1900495Y+2250000D01*
X-1938214Y+2250000D01*
X-1950787Y+2238824D01*
X-1950787Y+2216472D01*
X-1887922Y+2216472D01*
D16*
X-2046160Y+2767840D02*
X-1517840Y+2767840D01*
X-1517840Y+3042160D01*
X-2046160Y+3042160D01*
X-2046160Y+2767840D01*
D22*
X-1655000Y+2905000D02*
X-1655000Y+2905000D01*
D23*
X-1893506Y+2882648D02*
X-1906079Y+2871472D01*
X-1943798Y+2871472D01*
X-1968944Y+2893824D01*
X-1968944Y+2916176D01*
X-1943798Y+2938528D01*
X-1906079Y+2938528D01*
X-1893506Y+2927352D01*
X-1855787Y+2927352D02*
X-1843214Y+2938528D01*
X-1805495Y+2938528D01*
X-1792922Y+2927352D01*
X-1792922Y+2916176D01*
X-1805495Y+2905000D01*
X-1792922Y+2893824D01*
X-1792922Y+2882648D01*
X-1805495Y+2871472D01*
X-1843214Y+2871472D01*
X-1855787Y+2882648D01*
X-1830641Y+2905000D02*
X-1805495Y+2905000D01*
D16*
X-2668780Y+2310700D02*
X-2381760Y+2310700D01*
X-2381760Y+3555300D01*
X-2668780Y+3555300D01*
X-2668780Y+2310700D01*
D24*
X-2524000Y+2425000D02*
X-2524000Y+2425000D01*
D25*
X-2469263Y+2844989D02*
X-2581277Y+2844989D01*
X-2581277Y+2928999D01*
X-2543939Y+2971004D01*
X-2506601Y+2971004D01*
X-2469263Y+2928999D01*
X-2469263Y+2844989D01*
X-2543939Y+3055015D02*
X-2581277Y+3097020D01*
X-2469263Y+3097020D01*
D16*
X-3051240Y+3560700D02*
X-2764220Y+3560700D01*
X-2764220Y+4805300D01*
X-3051240Y+4805300D01*
X-3051240Y+3560700D01*
D24*
X-2909000Y+4691000D02*
X-2909000Y+4691000D01*
D25*
X-2851723Y+3934969D02*
X-2963737Y+3934969D01*
X-2963737Y+4018979D01*
X-2926399Y+4060984D01*
X-2889061Y+4060984D01*
X-2851723Y+4018979D01*
X-2851723Y+3934969D01*
X-2945068Y+4123992D02*
X-2963737Y+4144995D01*
X-2963737Y+4208003D01*
X-2945068Y+4229005D01*
X-2926399Y+4229005D01*
X-2907730Y+4208003D01*
X-2907730Y+4144995D01*
X-2889061Y+4123992D01*
X-2851723Y+4123992D01*
X-2851723Y+4229005D01*
D16*
X-1404240Y+3639700D02*
X-1117220Y+3639700D01*
X-1117220Y+4884300D01*
X-1404240Y+4884300D01*
X-1404240Y+3639700D01*
D24*
X-1262000Y+4770000D02*
X-1262000Y+4770000D01*
D25*
X-1204723Y+4013969D02*
X-1316737Y+4013969D01*
X-1316737Y+4097979D01*
X-1279399Y+4139984D01*
X-1242061Y+4139984D01*
X-1204723Y+4097979D01*
X-1204723Y+4013969D01*
X-1298068Y+4202992D02*
X-1316737Y+4223995D01*
X-1316737Y+4287003D01*
X-1298068Y+4308005D01*
X-1279399Y+4308005D01*
X-1260730Y+4287003D01*
X-1242061Y+4308005D01*
X-1223392Y+4308005D01*
X-1204723Y+4287003D01*
X-1204723Y+4223995D01*
X-1223392Y+4202992D01*
X-1260730Y+4244997D02*
X-1260730Y+4287003D01*
D16*
X-1264160Y+2604840D02*
X-862840Y+2604840D01*
X-862840Y+3387160D01*
X-1264160Y+3387160D01*
X-1264160Y+2604840D01*
D26*
X-1000000Y+2742000D02*
X-1000000Y+2742000D01*
D27*
X-1082973Y+2909641D02*
X-1121920Y+2953455D01*
X-1121920Y+2997270D01*
X-1082973Y+3041085D01*
X-1044027Y+3041085D01*
X-1005080Y+2997270D01*
X-1005080Y+2953455D01*
X-1044027Y+2909641D01*
X-1082973Y+2909641D01*
X-1044027Y+2997270D02*
X-1005080Y+3041085D01*
X-1082973Y+3128714D02*
X-1121920Y+3172529D01*
X-1005080Y+3172529D01*
D16*
X-1391160Y+2112840D02*
X-862840Y+2112840D01*
X-862840Y+2387160D01*
X-1391160Y+2387160D01*
X-1391160Y+2112840D01*
D22*
X-1000000Y+2250000D02*
X-1000000Y+2250000D01*
D23*
X-1238506Y+2227648D02*
X-1251079Y+2216472D01*
X-1288798Y+2216472D01*
X-1313944Y+2238824D01*
X-1313944Y+2261176D01*
X-1288798Y+2283528D01*
X-1251079Y+2283528D01*
X-1238506Y+2272352D01*
X-1188214Y+2261176D02*
X-1163068Y+2283528D01*
X-1163068Y+2216472D01*
M02*
